<?xml version="1.0" encoding="UTF-8"?>
<svg width="12px" height="12px" viewBox="0 0 12 12" version="1.1" xmlns="http://www.w3.org/2000/svg" xmlns:xlink="http://www.w3.org/1999/xlink">
    <!-- Generator: sketchtool 52.5 (67469) - http://www.bohemiancoding.com/sketch -->
    <title>A9C57DCE-F981-4EE0-A1D8-58921A28CA78</title>
    <desc>Created with sketchtool.</desc>
    <g id="Pre-Quotes" stroke="none" stroke-width="1" fill="none" fill-rule="evenodd">
        <g id="OTP" transform="translate(-1215.000000, -171.000000)" fill="#FFFFFF" fill-rule="nonzero">
            <g id="Group" transform="translate(787.000000, 150.000000)">
                <g id="Close-Icon" transform="translate(428.000000, 21.000000)">
                    <path d="M11.3684211,11.6842105 C11.2875789,11.6842105 11.2067368,11.6532632 11.1448421,11.592 L0.408,0.855157895 C0.284842105,0.732 0.284842105,0.531789474 0.408,0.408631579 C0.531157895,0.285473684 0.731368421,0.285473684 0.854526316,0.408631579 L11.5913684,11.1454737 C11.7145263,11.2686316 11.7145263,11.4688421 11.5913684,11.592 C11.5301053,11.6532632 11.4492632,11.6842105 11.3684211,11.6842105 Z" id="Shape"></path>
                    <path d="M0.631578947,11.6842105 C0.550736842,11.6842105 0.469894737,11.6532632 0.408,11.592 C0.284842105,11.4688421 0.284842105,11.2686316 0.408,11.1454737 L11.1448421,0.408631579 C11.268,0.285473684 11.4682105,0.285473684 11.5913684,0.408631579 C11.7145263,0.531789474 11.7145263,0.732 11.5913684,0.855157895 L0.854526316,11.592 C0.793263158,11.6532632 0.712421053,11.6842105 0.631578947,11.6842105 Z" id="Shape"></path>
                </g>
            </g>
        </g>
    </g>
</svg>